<?xml version="1.0" encoding="utf-8"?>
<!-- Generator: Adobe Illustrator 22.0.0, SVG Export Plug-In . SVG Version: 6.00 Build 0)  -->
<svg version="1.1" id="Layer_1" xmlns="http://www.w3.org/2000/svg" xmlns:xlink="http://www.w3.org/1999/xlink" x="0px" y="0px"
	 viewBox="0 0 350.6 370.4" style="enable-background:new 0 0 350.6 370.4;" xml:space="preserve">
<style type="text/css">
	.st0{fill:#E6007A;}
</style>
<g>
	<g>
		<path d="M215.8,224.4v0.5c-0.4,13.6-19.9,23.9-43.6,23.1s-42.5-12.4-42.1-25.9l-0.1-25.6l43.8,25.3l41.9-25.3L215.8,224.4
			L215.8,224.4z"/>
		<path class="st0" d="M172.9,227.4c-3,0-5.9-0.8-8.6-2.4l0,0l-74-44.6c-3.3-2-5.2-5.4-5.2-9.3c0-3.8,1.9-7.3,5.2-9.3l74-44.6
			c5.3-3.2,11.9-3.2,17.2,0l74,44.6c3.3,2,5.2,5.4,5.2,9.3s-2,7.3-5.2,9.3l-74,44.6C178.8,226.6,175.9,227.4,172.9,227.4z
			 M170,215.5c1.8,1.1,4,1.1,5.7,0l73.6-44.3l-73.6-44.3c-1.8-1.1-4-1.1-5.7,0l-73.6,44.3L170,215.5z"/>
		<path d="M240.4,207.2c-3.1,0-5.6-2.5-5.6-5.6v-15.4l-16.6-9.4c-2.7-1.5-3.6-4.9-2.1-7.6c1.5-2.7,4.9-3.6,7.6-2.1l19.5,11
			c1.7,1,2.8,2.8,2.8,4.8v18.6C245.9,204.7,243.5,207.2,240.4,207.2L240.4,207.2z"/>
		<circle class="st0" cx="240.4" cy="222.5" r="8"/>
	</g>
	<g>
		<ellipse class="st0" cx="172.9" cy="37" rx="67.2" ry="39.1"/>
		<ellipse class="st0" cx="172.9" cy="331.6" rx="67.2" ry="39.1"/>
		<ellipse transform="matrix(0.5 -0.866 0.866 0.5 -73.1514 94.5725)" class="st0" cx="45.3" cy="110.6" rx="67.2" ry="39.1"/>
		<ellipse transform="matrix(0.5 -0.866 0.866 0.5 -73.1438 389.1674)" class="st0" cx="300.5" cy="257.9" rx="67.2" ry="39.1"/>
		<ellipse transform="matrix(0.866 -0.5 0.5 0.866 -122.8932 57.2215)" class="st0" cx="45.3" cy="257.9" rx="39.1" ry="67.2"/>
		<ellipse transform="matrix(0.866 -0.5 0.5 0.866 -15.0621 165.0515)" class="st0" cx="300.5" cy="110.6" rx="39.1" ry="67.2"/>
	</g>
</g>
</svg>
