<?xml version="1.0" encoding="utf-8"?>
<!-- Generator: Adobe Illustrator 22.0.0, SVG Export Plug-In . SVG Version: 6.00 Build 0)  -->
<svg version="1.1" id="Layer_1" xmlns="http://www.w3.org/2000/svg" xmlns:xlink="http://www.w3.org/1999/xlink" x="0px" y="0px"
	 viewBox="0 0 1268.6 372.8" style="enable-background:new 0 0 1268.6 372.8;" xml:space="preserve">
<style type="text/css">
	.st0{display:none;}
	.st1{display:inline;stroke:#FFFFFF;stroke-miterlimit:10;}
	.st2{fill:#FFFFFF;}
	.st3{fill:#E6007A;}
</style>
<g id="Layer_2_1_" class="st0">
	<rect x="-91" y="-124" class="st1" width="1425" height="561"/>
</g>
<g id="Layer_1_1_">
	<g>
		<path class="st2" d="M514.9,8.8c4.4,2.1,7.8,5,10.2,8.8c2.4,3.8,3.5,8.2,3.5,13.2s-1.2,9.4-3.5,13.2s-5.8,6.7-10.2,8.8
			s-9.7,3.1-15.7,3.1h-20.7v22.6h-20.2V5.7h40.9C505.2,5.7,510.5,6.8,514.9,8.8z M498,39.8c3.2,0,5.8-0.8,7.6-2.4s2.7-3.8,2.7-6.6
			s-0.9-5-2.7-6.6s-4.3-2.4-7.6-2.4h-19.6v18C478.4,39.9,498,39.9,498,39.8z"/>
		<path class="st2" d="M554.8,75.4c-6.5-3.2-11.6-7.6-15.2-13.4s-5.4-12.4-5.4-19.9s1.8-14.2,5.4-19.9c3.6-5.8,8.7-10.2,15.2-13.4
			S568.9,4,577.4,4s16.1,1.6,22.6,4.8s11.6,7.6,15.2,13.4s5.4,12.4,5.4,19.9s-1.8,14.2-5.4,19.9c-3.6,5.8-8.7,10.2-15.2,13.4
			s-14.1,4.8-22.6,4.8S561.4,78.6,554.8,75.4z M557.3,52.8c1.9,3,4.5,5.3,8,6.9s7.5,2.4,12.2,2.4s8.7-0.8,12.2-2.4s6.1-3.9,8-6.9
			s2.8-6.6,2.8-10.6s-0.9-7.6-2.8-10.6s-4.5-5.3-8-6.9s-7.5-2.4-12.2-2.4s-8.7,0.8-12.2,2.4s-6.1,3.9-8,6.9s-2.8,6.6-2.8,10.6
			S555.5,49.8,557.3,52.8z"/>
		<path class="st2" d="M651.3,60.7h45.5v17.9h-65.6V5.7h20.2L651.3,60.7L651.3,60.7z"/>
		<path class="st2" d="M705.3,5.7h20.1v45.9l35.9-45.9h21.3l-24.8,30.7l25.8,42.2h-22.9l-15.6-26.5l-21.5,26.5h-18.2L705.3,5.7
			L705.3,5.7z"/>
		<path class="st2" d="M876,78.6h-21.5l-6.1-14h-37.7l-6.1,14h-21.5l33.2-72.9h26.5L876,78.6L876,78.6z M841.5,48.4l-11.9-27.3
			l-11.8,27.3C817.8,48.4,841.5,48.4,841.5,48.4z"/>
		<path class="st2" d="M941.9,10.3c6.5,3,11.6,7.3,15.2,12.8c3.6,5.5,5.4,11.9,5.4,19.1s-1.8,13.6-5.4,19.1
			c-3.6,5.5-8.7,9.8-15.2,12.8s-14.1,4.5-22.7,4.5h-36.4V5.7h36.4C927.8,5.7,935.4,7.2,941.9,10.3z M920.7,60.7
			c4.3,0,8.1-0.8,11.3-2.3s5.7-3.7,7.4-6.4s2.6-6.1,2.6-9.8s-0.9-7-2.6-9.8c-1.7-2.8-4.2-4.9-7.4-6.4s-7-2.3-11.3-2.3h-17.8v37
			L920.7,60.7L920.7,60.7z"/>
		<path class="st2" d="M990.3,75.4c-6.5-3.2-11.6-7.6-15.2-13.4s-5.4-12.4-5.4-19.9s1.8-14.2,5.4-19.9c3.6-5.8,8.7-10.2,15.2-13.4
			s14.1-4.8,22.6-4.8s16.1,1.6,22.6,4.8s11.6,7.6,15.2,13.4s5.4,12.4,5.4,19.9s-1.8,14.2-5.4,19.9c-3.6,5.8-8.7,10.2-15.2,13.4
			s-14.1,4.8-22.6,4.8S996.8,78.6,990.3,75.4L990.3,75.4z M992.8,52.8c1.9,3,4.5,5.3,8,6.9s7.5,2.4,12.2,2.4s8.7-0.8,12.2-2.4
			c3.4-1.6,6.1-3.9,8-6.9s2.8-6.6,2.8-10.6s-0.9-7.6-2.8-10.6s-4.5-5.3-8-6.9s-7.5-2.4-12.2-2.4s-8.7,0.8-12.2,2.4s-6.1,3.9-8,6.9
			s-2.8,6.6-2.8,10.6S991,49.8,992.8,52.8L992.8,52.8z"/>
		<path class="st2" d="M1134.4,5.7v17.9h-27.8v54.9h-20.2V23.7h-27.8v-18H1134.4L1134.4,5.7z"/>
		<path class="st2" d="M461.7,138.4l-5.6-35.5H508c4.5,0,8.3,0.7,11.5,2.1c3.2,1.4,5.7,3.5,7.3,6.1c1.7,2.7,2.5,5.8,2.5,9.5
			s-0.9,6.8-2.7,9.8c-1.8,2.9-4.5,5.3-8.2,7c5.2,1.2,9.1,3.4,11.8,6.5c2.6,3.1,3.9,6.9,3.9,11.4c0,4-0.9,7.6-2.8,10.6
			s-4.6,5.5-8.2,7.2c-3.6,1.8-8.1,2.6-13.3,2.6H456L461.7,138.4L461.7,138.4z M504.5,161.7c2.9,0,5.1-0.7,6.8-2.1
			c1.6-1.4,2.4-3.4,2.4-5.9s-0.9-4.6-2.7-6.1s-4.4-2.3-7.8-2.3h-23.3l-2.5,16.4L504.5,161.7L504.5,161.7z M479.9,131.5h20.6
			c2.5,0,4.5-0.7,6-2.1c1.5-1.4,2.3-3.3,2.3-5.6c0-2-0.7-3.6-2.1-4.9c-1.4-1.2-3.4-1.9-5.9-1.9h-23.4L479.9,131.5L479.9,131.5z"/>
		<path class="st2" d="M564.2,157.9h45.5v17.9h-65.6v-72.9h20.2v55H564.2z"/>
		<path class="st2" d="M632.5,172.6c-6.5-3.2-11.6-7.6-15.2-13.4c-3.6-5.8-5.4-12.4-5.4-19.9s1.8-14.1,5.4-19.9s8.7-10.2,15.2-13.4
			s14.1-4.8,22.6-4.8s16.1,1.6,22.6,4.8s11.6,7.6,15.2,13.4c3.6,5.8,5.4,12.4,5.4,19.9s-1.8,14.1-5.4,19.9s-8.7,10.2-15.2,13.4
			s-14.1,4.8-22.6,4.8S639,175.8,632.5,172.6z M635,150c1.9,3,4.5,5.3,8,6.9s7.5,2.4,12.2,2.4s8.7-0.8,12.2-2.4s6.1-3.9,8-6.9
			s2.8-6.6,2.8-10.6s-0.9-7.6-2.8-10.6c-1.9-3-4.5-5.3-8-6.9c-3.5-1.6-7.5-2.4-12.2-2.4s-8.7,0.8-12.2,2.4s-6.1,3.9-8,6.9
			c-1.9,3-2.8,6.6-2.8,10.6S633.1,147,635,150z"/>
		<path class="st2" d="M783.1,162.1c-3.7,4.8-8.6,8.6-14.6,11.3c-6.1,2.7-12.9,4-20.5,4c-8.4,0-15.8-1.6-22.2-4.8
			s-11.4-7.6-14.9-13.4c-3.5-5.8-5.3-12.4-5.3-19.9s1.8-14.1,5.3-19.9s8.5-10.2,14.9-13.4s13.8-4.8,22.2-4.8c7.6,0,14.5,1.3,20.5,4
			s10.9,6.4,14.6,11.3c3.7,4.8,5.9,10.4,6.6,16.8h-20.3c-1-4.6-3.3-8.2-7-10.8s-8.6-3.9-14.5-3.9c-4.5,0-8.4,0.8-11.7,2.5
			s-5.8,4.1-7.6,7.1c-1.8,3-2.7,6.7-2.7,10.9s0.9,7.9,2.7,11s4.3,5.5,7.6,7.1s7.2,2.5,11.7,2.5c6,0,10.9-1.2,14.6-3.8
			c3.7-2.5,6-6.1,7-10.9h20.3C789,151.6,786.8,157.3,783.1,162.1L783.1,162.1z"/>
		<path class="st2" d="M799.5,102.9h20.1v45.9l35.9-45.9h21.3l-24.9,30.6l25.8,42.2h-22.9l-15.6-26.5l-21.5,26.5h-18.2V102.9z"/>
		<path class="st2" d="M953.5,162.1c-3.7,4.8-8.6,8.6-14.6,11.3c-6.1,2.7-12.9,4-20.5,4c-8.4,0-15.8-1.6-22.2-4.8
			s-11.4-7.6-14.9-13.4c-3.5-5.8-5.3-12.4-5.3-19.9s1.8-14.1,5.3-19.9s8.5-10.2,14.9-13.4s13.8-4.8,22.2-4.8c7.6,0,14.5,1.3,20.5,4
			s10.9,6.4,14.6,11.3s5.9,10.4,6.6,16.8h-20.3c-1-4.6-3.3-8.2-7-10.8s-8.6-3.9-14.5-3.9c-4.5,0-8.4,0.8-11.7,2.5s-5.8,4.1-7.6,7.1
			c-1.8,3-2.7,6.7-2.7,10.9s0.9,7.9,2.7,11s4.3,5.5,7.6,7.1s7.2,2.5,11.7,2.5c6,0,10.9-1.2,14.6-3.8c3.7-2.5,6-6.1,7-10.9h20.3
			C959.4,151.6,957.2,157.3,953.5,162.1L953.5,162.1z"/>
		<path class="st2" d="M990.1,102.9v27h37.3v-27h20.2v72.9h-20.2v-28.1h-37.3v28.1h-20.2v-72.9H990.1L990.1,102.9z"/>
		<path class="st2" d="M1147.1,175.8h-21.5l-6.1-14h-37.7l-6.1,14h-21.5l33.2-72.9h26.5L1147.1,175.8L1147.1,175.8z M1112.6,145.6
			l-11.9-27.3l-11.8,27.3H1112.6z"/>
		<path class="st2" d="M1174.1,102.9v72.9H1154v-72.9H1174.1z"/>
		<path class="st2" d="M1187.7,102.9h26.1l35.3,50v-50h19.5v72.9h-25.4l-35.9-51.1v51.1h-19.6V102.9L1187.7,102.9z"/>
		<path class="st2" d="M544.4,272.9h-21.5l-6.1-14h-37.6l-6.1,14h-21.5l33.2-72.9h26.5L544.4,272.9L544.4,272.9z M509.9,242.7
			L498,215.4l-11.8,27.3L509.9,242.7L509.9,242.7z"/>
		<path class="st2" d="M621.2,259.3c-3.7,4.9-8.6,8.6-14.6,11.3c-6.1,2.7-12.9,4-20.5,4c-8.4,0-15.8-1.6-22.2-4.8
			c-6.4-3.2-11.4-7.6-14.9-13.4s-5.3-12.4-5.3-19.9s1.8-14.1,5.3-19.9s8.5-10.2,14.9-13.4s13.8-4.8,22.2-4.8c7.6,0,14.5,1.3,20.5,4
			s10.9,6.4,14.6,11.3c3.7,4.9,5.9,10.5,6.6,16.8h-20.3c-1-4.6-3.3-8.2-7-10.8c-3.7-2.6-8.6-3.9-14.5-3.9c-4.5,0-8.4,0.8-11.7,2.5
			s-5.8,4-7.6,7.1s-2.7,6.7-2.7,11s0.9,7.9,2.7,11s4.3,5.5,7.6,7.1c3.3,1.7,7.2,2.5,11.7,2.5c6,0,10.9-1.3,14.6-3.8
			c3.7-2.5,6-6.1,7-10.9h20.3C627.1,248.8,624.9,254.4,621.2,259.3L621.2,259.3z"/>
		<path class="st2" d="M720,272.9h-21.5l-6.1-14h-37.7l-6.1,14h-21.5l33.2-72.9h26.5L720,272.9L720,272.9z M685.4,242.7l-11.9-27.3
			l-11.8,27.3H685.4z"/>
		<path class="st2" d="M785.9,204.6c6.5,3,11.6,7.3,15.2,12.8c3.6,5.5,5.4,11.9,5.4,19.1s-1.8,13.6-5.4,19.1
			c-3.6,5.5-8.7,9.8-15.2,12.8s-14.1,4.5-22.7,4.5h-36.4V200h36.4C771.8,200.1,779.3,201.6,785.9,204.6L785.9,204.6z M764.7,255
			c4.3,0,8.1-0.8,11.3-2.3s5.7-3.6,7.4-6.4s2.6-6,2.6-9.8s-0.9-7-2.6-9.8c-1.7-2.8-4.2-4.9-7.4-6.4s-7-2.3-11.3-2.3h-17.8v37
			L764.7,255L764.7,255z"/>
		<path class="st2" d="M878.2,243.8h-40.8l-2,12.8h46.2v16.3h-67.8l5.5-36.4l-5.5-36.4H881v16.3h-45.7l2,12.8h40.8v14.6H878.2z"/>
		<path class="st2" d="M999.5,272.9h-19.1v-55.3l-24,55.3H936l-23.9-55v55H893V200h31.1l22.2,53.3l22.1-53.3h31.1L999.5,272.9
			L999.5,272.9z"/>
		<path class="st2" d="M1041.1,243.6l-34.2-43.6h22.3l21.9,27.9L1073,200h22.3l-34,43.3v29.5h-20.2L1041.1,243.6L1041.1,243.6z"/>
		<g>
			<path class="st2" d="M542.4,363.1h-21l-5.9-13.7h-36.9l-5.9,13.7h-21.1l32.5-71.3H510L542.4,363.1z M508.6,333.5L497,306.8
				l-11.6,26.7H508.6z"/>
			<path class="st2" d="M568.9,345.5h44.5v17.5h-64.3v-71.3h19.7V345.5z"/>
			<path class="st2" d="M642,342.8c2.8,2.8,6.9,4.2,12.1,4.2c5.3,0,9.3-1.4,12.1-4.2c2.8-2.8,4.2-6.7,4.2-11.6v-39.5h19.7v40.4
				c0,6.4-1.5,12.1-4.5,17c-3,4.9-7.2,8.7-12.7,11.4c-5.5,2.7-11.7,4-18.9,4c-7.1,0-13.4-1.3-18.9-4c-5.5-2.7-9.7-6.5-12.7-11.4
				c-3-4.9-4.5-10.6-4.5-17v-40.4h19.7v39.5C637.8,336.1,639.2,340,642,342.8z"/>
			<path class="st2" d="M806.8,363.1H788v-54.1l-23.4,54.1h-19.9l-23.4-53.9v53.9h-18.8v-71.3H733l21.7,52.2l21.6-52.2h30.4V363.1z"
				/>
			<path class="st2" d="M820.1,291.7h25.5l34.5,49v-49h19.1v71.3h-24.8L839.2,313v50.1h-19.2V291.7z"/>
			<path class="st2" d="M932.2,291.7v71.3h-19.7v-71.3H932.2z"/>
		</g>
		<path class="st2" d="M1010.2,293.1v27h37.3v-27h20.2V366h-20.2v-28.1h-37.3V366H990v-72.9H1010.2L1010.2,293.1z"/>
		<path class="st2" d="M1100.5,344.2c2.8,2.8,6.9,4.2,12.1,4.2c5.3,0,9.3-1.4,12.1-4.2c2.8-2.8,4.2-6.7,4.2-11.6v-39.5h19.7v40.4
			c0,6.4-1.5,12.1-4.5,17c-3,4.9-7.2,8.7-12.7,11.4c-5.5,2.7-11.7,4-18.9,4c-7.1,0-13.4-1.3-18.9-4c-5.5-2.7-9.7-6.5-12.7-11.4
			c-3-4.9-4.5-10.6-4.5-17v-40.4h19.7v39.5C1096.3,337.5,1097.7,341.4,1100.5,344.2z"/>
		<path class="st2" d="M1162.9,326.5l-5.6-35.5h51.9c4.5,0,8.3,0.7,11.5,2.1s5.7,3.5,7.3,6.1c1.7,2.7,2.5,5.8,2.5,9.5
			c0,3.7-0.9,6.8-2.7,9.8c-1.8,2.9-4.5,5.3-8.2,7c5.2,1.2,9.1,3.4,11.8,6.5c2.6,3.1,3.9,6.9,3.9,11.4c0,4-0.9,7.6-2.8,10.6
			c-1.9,3-4.6,5.5-8.2,7.2c-3.6,1.8-8.1,2.6-13.3,2.6h-53.8L1162.9,326.5L1162.9,326.5z M1205.8,349.8c2.9,0,5.1-0.7,6.8-2.1
			c1.6-1.4,2.4-3.4,2.4-5.9s-0.9-4.6-2.7-6.1s-4.4-2.3-7.8-2.3h-23.3l-2.5,16.4L1205.8,349.8L1205.8,349.8z M1181.2,319.6h20.6
			c2.5,0,4.5-0.7,6-2.1c1.5-1.4,2.3-3.3,2.3-5.6c0-2-0.7-3.6-2.1-4.9c-1.4-1.2-3.4-1.9-5.9-1.9h-23.4L1181.2,319.6L1181.2,319.6z"/>
	</g>
	<g>
		<g>
			<path d="M218.2,226.6v0.5c-0.4,13.6-19.9,23.9-43.6,23.1s-42.5-12.4-42.1-25.9l-0.1-25.6l43.8,25.3l41.9-25.3L218.2,226.6
				L218.2,226.6z"/>
			<path class="st3" d="M175.3,229.5c-3,0-5.9-0.8-8.6-2.4l0,0l-74-44.6c-3.3-2-5.2-5.4-5.2-9.3c0-3.8,1.9-7.3,5.2-9.3l74-44.6
				c5.3-3.2,11.9-3.2,17.2,0l74,44.6c3.3,2,5.2,5.4,5.2,9.3s-2,7.3-5.2,9.3l-74,44.6C181.2,228.7,178.2,229.5,175.3,229.5z
				 M172.4,217.6c1.8,1.1,4,1.1,5.7,0l73.6-44.3L178.1,129c-1.8-1.1-4-1.1-5.7,0l-73.6,44.3L172.4,217.6z"/>
			<path d="M242.8,209.4c-3.1,0-5.6-2.5-5.6-5.6v-15.4l-16.6-9.4c-2.7-1.5-3.6-4.9-2.1-7.6c1.5-2.7,4.9-3.6,7.6-2.1l19.5,11
				c1.7,1,2.8,2.8,2.8,4.8v18.6C248.3,206.9,245.8,209.4,242.8,209.4L242.8,209.4z"/>
			<circle class="st3" cx="242.8" cy="224.6" r="8"/>
		</g>
		<g>
			<ellipse class="st3" cx="175.3" cy="39.1" rx="67.2" ry="39.1"/>
			<ellipse class="st3" cx="175.3" cy="333.7" rx="67.2" ry="39.1"/>
			<ellipse transform="matrix(0.5 -0.866 0.866 0.5 -73.8146 97.7357)" class="st3" cx="47.7" cy="112.8" rx="67.2" ry="39.1"/>
			<ellipse transform="matrix(0.5 -0.866 0.866 0.5 -73.847 392.3364)" class="st3" cx="302.9" cy="260.1" rx="67.2" ry="39.1"/>
			<ellipse transform="matrix(0.866 -0.5 0.5 0.866 -123.6572 58.7093)" class="st3" cx="47.7" cy="260.1" rx="39.1" ry="67.2"/>
			<ellipse transform="matrix(0.866 -0.5 0.5 0.866 -15.8364 166.528)" class="st3" cx="302.8" cy="112.8" rx="39.1" ry="67.2"/>
		</g>
	</g>
</g>
</svg>
