<?xml version="1.0" encoding="utf-8"?>
<!-- Generator: Adobe Illustrator 22.0.0, SVG Export Plug-In . SVG Version: 6.00 Build 0)  -->
<svg version="1.1" xmlns="http://www.w3.org/2000/svg" xmlns:xlink="http://www.w3.org/1999/xlink" x="0px" y="0px"
	 viewBox="0 0 1268.6 372.8" style="enable-background:new 0 0 1268.6 372.8;" xml:space="preserve">
<style type="text/css">
	.st0{display:none;}
	.st1{display:inline;stroke:#FFFFFF;stroke-miterlimit:10;}
	.st2{fill:#E6007A;}
</style>
<g id="Layer_2" class="st0">
	<rect x="-91" y="-124" class="st1" width="1425" height="561"/>
</g>
<g id="Layer_1">
	<g>
		<path d="M514.9,54.3c4.4,2.1,7.8,5,10.2,8.8s3.5,8.2,3.5,13.2s-1.2,9.4-3.5,13.2s-5.8,6.7-10.2,8.8s-9.7,3.1-15.7,3.1h-20.7v22.6
			h-20.2V51.2h40.9C505.2,51.2,510.5,52.3,514.9,54.3z M498,85.3c3.2,0,5.8-0.8,7.6-2.4s2.7-3.8,2.7-6.6s-0.9-5-2.7-6.6
			s-4.3-2.4-7.6-2.4h-19.6v18C478.4,85.4,498,85.4,498,85.3z"/>
		<path d="M554.8,120.9c-6.5-3.2-11.6-7.6-15.2-13.4s-5.4-12.4-5.4-19.9s1.8-14.2,5.4-19.9c3.6-5.8,8.7-10.2,15.2-13.4
			c6.5-3.2,14.1-4.8,22.6-4.8s16.1,1.6,22.6,4.8c6.5,3.2,11.6,7.6,15.2,13.4s5.4,12.4,5.4,19.9s-1.8,14.2-5.4,19.9
			c-3.6,5.8-8.7,10.2-15.2,13.4s-14.1,4.8-22.6,4.8S561.4,124.1,554.8,120.9z M557.3,98.3c1.9,3,4.5,5.3,8,6.9
			c3.5,1.6,7.5,2.4,12.2,2.4s8.7-0.8,12.2-2.4s6.1-3.9,8-6.9c1.9-3,2.8-6.6,2.8-10.6s-0.9-7.6-2.8-10.6s-4.5-5.3-8-6.9
			c-3.5-1.6-7.5-2.4-12.2-2.4s-8.7,0.8-12.2,2.4s-6.1,3.9-8,6.9c-1.9,3-2.8,6.6-2.8,10.6S555.5,95.3,557.3,98.3z"/>
		<path d="M651.3,106.2h45.5v17.9h-65.6V51.2h20.2L651.3,106.2L651.3,106.2z"/>
		<path d="M705.3,51.2h20.1v45.9l35.9-45.9h21.3l-24.8,30.7l25.8,42.2h-22.9l-15.6-26.5l-21.5,26.5h-18.2V51.2z"/>
		<path d="M876,124.1h-21.5l-6.1-14h-37.7l-6.1,14h-21.5l33.2-72.9h26.5L876,124.1L876,124.1z M841.5,93.9l-11.9-27.3l-11.8,27.3
			H841.5z"/>
		<path d="M941.9,55.8c6.5,3,11.6,7.3,15.2,12.8c3.6,5.5,5.4,11.9,5.4,19.1s-1.8,13.6-5.4,19.1c-3.6,5.5-8.7,9.8-15.2,12.8
			c-6.5,3-14.1,4.5-22.7,4.5h-36.4V51.2h36.4C927.8,51.2,935.4,52.7,941.9,55.8z M920.7,106.2c4.3,0,8.1-0.8,11.3-2.3
			c3.2-1.5,5.7-3.7,7.4-6.4s2.6-6.1,2.6-9.8s-0.9-7-2.6-9.8c-1.7-2.8-4.2-4.9-7.4-6.4c-3.2-1.5-7-2.3-11.3-2.3h-17.8v37H920.7z"/>
		<path d="M990.3,120.9c-6.5-3.2-11.6-7.6-15.2-13.4s-5.4-12.4-5.4-19.9s1.8-14.2,5.4-19.9c3.6-5.8,8.7-10.2,15.2-13.4
			c6.5-3.2,14.1-4.8,22.6-4.8s16.1,1.6,22.6,4.8c6.5,3.2,11.6,7.6,15.2,13.4s5.4,12.4,5.4,19.9s-1.8,14.2-5.4,19.9
			c-3.6,5.8-8.7,10.2-15.2,13.4s-14.1,4.8-22.6,4.8S996.8,124.1,990.3,120.9L990.3,120.9z M992.8,98.3c1.9,3,4.5,5.3,8,6.9
			c3.5,1.6,7.5,2.4,12.2,2.4s8.7-0.8,12.2-2.4c3.4-1.6,6.1-3.9,8-6.9c1.9-3,2.8-6.6,2.8-10.6s-0.9-7.6-2.8-10.6s-4.5-5.3-8-6.9
			c-3.5-1.6-7.5-2.4-12.2-2.4s-8.7,0.8-12.2,2.4s-6.1,3.9-8,6.9c-1.9,3-2.8,6.6-2.8,10.6S991,95.3,992.8,98.3L992.8,98.3z"/>
		<path d="M1134.4,51.2v17.9h-27.8v54.9h-20.2V69.2h-27.8V51.2L1134.4,51.2L1134.4,51.2z"/>
		<path d="M461.7,183.9l-5.6-35.5h51.9c4.5,0,8.3,0.7,11.5,2.1c3.2,1.4,5.7,3.5,7.3,6.1c1.7,2.7,2.5,5.8,2.5,9.5s-0.9,6.8-2.7,9.8
			c-1.8,2.9-4.5,5.3-8.2,7c5.2,1.2,9.1,3.4,11.8,6.5c2.6,3.1,3.9,6.9,3.9,11.4c0,4-0.9,7.6-2.8,10.6s-4.6,5.5-8.2,7.2
			c-3.6,1.8-8.1,2.6-13.3,2.6h-53.8L461.7,183.9L461.7,183.9z M504.5,207.2c2.9,0,5.1-0.7,6.8-2.1c1.6-1.4,2.4-3.4,2.4-5.9
			s-0.9-4.6-2.7-6.1c-1.8-1.5-4.4-2.3-7.8-2.3h-23.3l-2.5,16.4H504.5z M479.9,177h20.6c2.5,0,4.5-0.7,6-2.1s2.3-3.3,2.3-5.6
			c0-2-0.7-3.6-2.1-4.9c-1.4-1.2-3.4-1.9-5.9-1.9h-23.4L479.9,177L479.9,177z"/>
		<path d="M564.2,203.4h45.5v17.9h-65.6v-72.9h20.2V203.4L564.2,203.4z"/>
		<path d="M632.5,218.1c-6.5-3.2-11.6-7.6-15.2-13.4c-3.6-5.8-5.4-12.4-5.4-19.9s1.8-14.1,5.4-19.9s8.7-10.2,15.2-13.4
			s14.1-4.8,22.6-4.8s16.1,1.6,22.6,4.8s11.6,7.6,15.2,13.4c3.6,5.8,5.4,12.4,5.4,19.9s-1.8,14.1-5.4,19.9s-8.7,10.2-15.2,13.4
			s-14.1,4.8-22.6,4.8S639,221.3,632.5,218.1z M635,195.5c1.9,3,4.5,5.3,8,6.9s7.5,2.4,12.2,2.4s8.7-0.8,12.2-2.4s6.1-3.9,8-6.9
			c1.9-3,2.8-6.6,2.8-10.6s-0.9-7.6-2.8-10.6s-4.5-5.3-8-6.9c-3.5-1.6-7.5-2.4-12.2-2.4s-8.7,0.8-12.2,2.4s-6.1,3.9-8,6.9
			c-1.9,3-2.8,6.6-2.8,10.6S633.1,192.5,635,195.5z"/>
		<path d="M783.1,207.6c-3.7,4.8-8.6,8.6-14.6,11.3c-6.1,2.7-12.9,4-20.5,4c-8.4,0-15.8-1.6-22.2-4.8c-6.4-3.2-11.4-7.6-14.9-13.4
			c-3.5-5.8-5.3-12.4-5.3-19.9s1.8-14.1,5.3-19.9s8.5-10.2,14.9-13.4c6.4-3.2,13.8-4.8,22.2-4.8c7.6,0,14.5,1.3,20.5,4
			c6,2.7,10.9,6.4,14.6,11.3c3.7,4.8,5.9,10.4,6.6,16.8h-20.3c-1-4.6-3.3-8.2-7-10.8c-3.7-2.6-8.6-3.9-14.5-3.9
			c-4.5,0-8.4,0.8-11.7,2.5s-5.8,4.1-7.6,7.1s-2.7,6.7-2.7,10.9s0.9,7.9,2.7,11c1.8,3.1,4.3,5.5,7.6,7.1s7.2,2.5,11.7,2.5
			c6,0,10.9-1.2,14.6-3.8c3.7-2.5,6-6.1,7-10.9h20.3C789,197.1,786.8,202.8,783.1,207.6L783.1,207.6z"/>
		<path d="M799.5,148.4h20.1v45.9l35.9-45.9h21.3L851.9,179l25.8,42.2h-22.9l-15.6-26.5l-21.5,26.5h-18.2V148.4z"/>
		<path d="M953.5,207.6c-3.7,4.8-8.6,8.6-14.6,11.3c-6.1,2.7-12.9,4-20.5,4c-8.4,0-15.8-1.6-22.2-4.8c-6.4-3.2-11.4-7.6-14.9-13.4
			c-3.5-5.8-5.3-12.4-5.3-19.9s1.8-14.1,5.3-19.9s8.5-10.2,14.9-13.4c6.4-3.2,13.8-4.8,22.2-4.8c7.6,0,14.5,1.3,20.5,4
			c6,2.7,10.9,6.4,14.6,11.3s5.9,10.4,6.6,16.8h-20.3c-1-4.6-3.3-8.2-7-10.8c-3.7-2.6-8.6-3.9-14.5-3.9c-4.5,0-8.4,0.8-11.7,2.5
			s-5.8,4.1-7.6,7.1s-2.7,6.7-2.7,10.9s0.9,7.9,2.7,11c1.8,3.1,4.3,5.5,7.6,7.1s7.2,2.5,11.7,2.5c6,0,10.9-1.2,14.6-3.8
			c3.7-2.5,6-6.1,7-10.9h20.3C959.4,197.1,957.2,202.8,953.5,207.6L953.5,207.6z"/>
		<path d="M990.1,148.4v27h37.3v-27h20.2v72.9h-20.2v-28.1h-37.3v28.1h-20.2v-72.9H990.1L990.1,148.4z"/>
		<path d="M1147.1,221.3h-21.5l-6.1-14h-37.7l-6.1,14h-21.5l33.2-72.9h26.5L1147.1,221.3L1147.1,221.3z M1112.6,191.1l-11.9-27.3
			l-11.8,27.3H1112.6z"/>
		<path d="M1174.1,148.4v72.9H1154v-72.9H1174.1z"/>
		<path d="M1187.7,148.4h26.1l35.3,50v-50h19.5v72.9h-25.4l-35.9-51.1v51.1h-19.6L1187.7,148.4L1187.7,148.4z"/>
		<path d="M544.4,318.4h-21.5l-6.1-14h-37.6l-6.1,14h-21.5l33.2-72.9h26.5L544.4,318.4L544.4,318.4z M509.9,288.2L498,260.9
			l-11.8,27.3H509.9L509.9,288.2z"/>
		<path d="M621.2,304.8c-3.7,4.9-8.6,8.6-14.6,11.3c-6.1,2.7-12.9,4-20.5,4c-8.4,0-15.8-1.6-22.2-4.8c-6.4-3.2-11.4-7.6-14.9-13.4
			s-5.3-12.4-5.3-19.9s1.8-14.1,5.3-19.9c3.5-5.8,8.5-10.2,14.9-13.4c6.4-3.2,13.8-4.8,22.2-4.8c7.6,0,14.5,1.3,20.5,4
			c6,2.7,10.9,6.4,14.6,11.3c3.7,4.9,5.9,10.5,6.6,16.8h-20.3c-1-4.6-3.3-8.2-7-10.8c-3.7-2.6-8.6-3.9-14.5-3.9
			c-4.5,0-8.4,0.8-11.7,2.5c-3.3,1.7-5.8,4-7.6,7.1c-1.8,3.1-2.7,6.7-2.7,11s0.9,7.9,2.7,11c1.8,3.1,4.3,5.5,7.6,7.1
			c3.3,1.7,7.2,2.5,11.7,2.5c6,0,10.9-1.3,14.6-3.8c3.7-2.5,6-6.1,7-10.9h20.3C627.1,294.3,624.9,299.9,621.2,304.8L621.2,304.8z"/>
		<path d="M720,318.4h-21.5l-6.1-14h-37.7l-6.1,14h-21.5l33.2-72.9h26.5L720,318.4L720,318.4z M685.4,288.2l-11.9-27.3l-11.8,27.3
			H685.4z"/>
		<path d="M785.9,250.1c6.5,3,11.6,7.3,15.2,12.8c3.6,5.5,5.4,11.9,5.4,19.1s-1.8,13.6-5.4,19.1c-3.6,5.5-8.7,9.8-15.2,12.8
			c-6.5,3-14.1,4.5-22.7,4.5h-36.4v-72.9h36.4C771.8,245.6,779.3,247.1,785.9,250.1L785.9,250.1z M764.7,300.5
			c4.3,0,8.1-0.8,11.3-2.3c3.2-1.5,5.7-3.6,7.4-6.4s2.6-6,2.6-9.8s-0.9-7-2.6-9.8c-1.7-2.8-4.2-4.9-7.4-6.4c-3.2-1.5-7-2.3-11.3-2.3
			h-17.8v37L764.7,300.5L764.7,300.5z"/>
		<path d="M878.2,289.3h-40.8l-2,12.8h46.2v16.3h-67.8l5.5-36.4l-5.5-36.4H881v16.3h-45.7l2,12.8h40.8V289.3z"/>
		<path d="M999.5,318.4h-19.1v-55.3l-24,55.3h-20.4l-23.9-55v55H893v-72.9h31.1l22.2,53.3l22.1-53.3h31.1L999.5,318.4L999.5,318.4z"
			/>
		<path d="M1041.1,289.1l-34.2-43.6h22.3l21.9,27.9l21.9-27.9h22.3l-34,43.3v29.5h-20.2V289.1L1041.1,289.1z"/>
	</g>
	<g>
		<g>
			<path d="M218.2,226.6v0.5c-0.4,13.6-19.9,23.9-43.6,23.1s-42.5-12.4-42.1-25.9l-0.1-25.6l43.8,25.3l41.9-25.3L218.2,226.6
				L218.2,226.6z"/>
			<path class="st2" d="M175.3,229.5c-3,0-5.9-0.8-8.6-2.4l0,0l-74-44.6c-3.3-2-5.2-5.4-5.2-9.3c0-3.8,1.9-7.3,5.2-9.3l74-44.6
				c5.3-3.2,11.9-3.2,17.2,0l74,44.6c3.3,2,5.2,5.4,5.2,9.3s-2,7.3-5.2,9.3l-74,44.6C181.2,228.7,178.2,229.5,175.3,229.5z
				 M172.4,217.6c1.8,1.1,4,1.1,5.7,0l73.6-44.3L178.1,129c-1.8-1.1-4-1.1-5.7,0l-73.6,44.3L172.4,217.6z"/>
			<path d="M242.8,209.4c-3.1,0-5.6-2.5-5.6-5.6v-15.4l-16.6-9.4c-2.7-1.5-3.6-4.9-2.1-7.6c1.5-2.7,4.9-3.6,7.6-2.1l19.5,11
				c1.7,1,2.8,2.8,2.8,4.8v18.6C248.3,206.9,245.8,209.4,242.8,209.4L242.8,209.4z"/>
			<circle class="st2" cx="242.8" cy="224.6" r="8"/>
		</g>
		<g>
			<ellipse class="st2" cx="175.3" cy="39.1" rx="67.2" ry="39.1"/>
			<ellipse class="st2" cx="175.3" cy="333.7" rx="67.2" ry="39.1"/>
			<ellipse transform="matrix(0.5 -0.866 0.866 0.5 -73.7993 97.7023)" class="st2" cx="47.7" cy="112.8" rx="67.2" ry="39.1"/>
			<ellipse transform="matrix(0.5 -0.866 0.866 0.5 -73.7918 392.2973)" class="st2" cx="302.8" cy="260.1" rx="67.2" ry="39.1"/>
			<ellipse transform="matrix(0.866 -0.5 0.5 0.866 -123.6365 58.6996)" class="st2" cx="47.7" cy="260.1" rx="39.1" ry="67.2"/>
			<ellipse transform="matrix(0.866 -0.5 0.5 0.866 -15.8054 166.5296)" class="st2" cx="302.8" cy="112.8" rx="39.1" ry="67.2"/>
		</g>
	</g>
</g>
</svg>
